# xmcd
#
# Track frame offsets: 
#        150
#        16398
#        34427
#        51029
#        71013
#        84751
#        97608
#        113775
#        128176
#        146307
#        157103
#        175511
#
# Disc length: 2567 seconds
#
# Revision: 1
# Processed by: cddbd v1.5.2PL0 Copyright (c) Steve Scherf et al.
# Submitted via: ExactAudioCopy v0.99pb3
#
DISCID=900a050c
DTITLE=Amy Ray - Goodnight Tender
DYEAR=2014
DGENRE=Folk
TTITLE0=Hunter's Prayer
TTITLE1=Oyster and Pearl
TTITLE2=The Gig That Matters
TTITLE3=Time Zone
TTITLE4=Anyhow
TTITLE5=Duane Allman
TTITLE6=More Pills
TTITLE7=Broken Record
TTITLE8=Goodnight Tender
TTITLE9=My Dog
TTITLE10=Let the Spirit
TTITLE11=When You Come for Me
EXTD=
EXTT0=
EXTT1=
EXTT2=
EXTT3=
EXTT4=
EXTT5=
EXTT6=
EXTT7=
EXTT8=
EXTT9=
EXTT10=
EXTT11=
PLAYORDER=
